<svg width="176" height="134" viewBox="0 0 176 134" fill="none" xmlns="http://www.w3.org/2000/svg">
<path d="M161.5 67V132H57.5V67" stroke="#513125" stroke-width="3" stroke-linecap="round" stroke-linejoin="round"/>
<path d="M44.5 34.5H174.5V67H44.5V34.5Z" stroke="#513125" stroke-width="3" stroke-linecap="round" stroke-linejoin="round"/>
<path d="M109.5 132V34.5" stroke="#513125" stroke-width="3" stroke-linecap="round" stroke-linejoin="round"/>
<path d="M109.5 34.5H80.25C75.9402 34.5 71.807 32.788 68.7595 29.7405C65.712 26.693 64 22.5598 64 18.25C64 13.9402 65.712 9.80698 68.7595 6.75951C71.807 3.71205 75.9402 2 80.25 2C103 2 109.5 34.5 109.5 34.5Z" stroke="#513125" stroke-width="3" stroke-linecap="round" stroke-linejoin="round"/>
<path d="M109.5 34.5H138.75C140.884 34.5 142.997 34.0797 144.969 33.263C146.94 32.4464 148.732 31.2494 150.24 29.7405C151.749 28.2315 152.946 26.4401 153.763 24.4686C154.58 22.4971 155 20.384 155 18.25C155 16.116 154.58 14.0029 153.763 12.0314C152.946 10.0599 151.749 8.26847 150.24 6.75951C148.732 5.25056 146.94 4.0536 144.969 3.23696C142.997 2.42032 140.884 2 138.75 2C116 2 109.5 34.5 109.5 34.5Z" stroke="#513125" stroke-width="3" stroke-linecap="round" stroke-linejoin="round"/>
<path d="M48.8002 105.5V131.5H7.2002V105.5" stroke="#513125" stroke-width="3" stroke-linecap="round" stroke-linejoin="round"/>
<path d="M2 92.5H54V105.5H2V92.5Z" stroke="#513125" stroke-width="3" stroke-linecap="round" stroke-linejoin="round"/>
<path d="M28 131.5V92.5" stroke="#513125" stroke-width="3" stroke-linecap="round" stroke-linejoin="round"/>
<path d="M27.9998 92.5H16.2998C14.5759 92.5 12.9226 91.8152 11.7036 90.5962C10.4846 89.3772 9.7998 87.7239 9.7998 86C9.7998 84.2761 10.4846 82.6228 11.7036 81.4038C12.9226 80.1848 14.5759 79.5 16.2998 79.5C25.3998 79.5 27.9998 92.5 27.9998 92.5Z" stroke="#513125" stroke-width="3" stroke-linecap="round" stroke-linejoin="round"/>
<path d="M28 92.5H39.7C40.5536 92.5 41.3988 92.3319 42.1874 92.0052C42.9761 91.6786 43.6926 91.1998 44.2962 90.5962C44.8998 89.9926 45.3786 89.2761 45.7052 88.4874C46.0319 87.6988 46.2 86.8536 46.2 86C46.2 85.1464 46.0319 84.3012 45.7052 83.5126C45.3786 82.7239 44.8998 82.0074 44.2962 81.4038C43.6926 80.8002 42.9761 80.3214 42.1874 79.9948C41.3988 79.6681 40.5536 79.5 39.7 79.5C30.6 79.5 28 92.5 28 92.5Z" stroke="#513125" stroke-width="3" stroke-linecap="round" stroke-linejoin="round"/>
</svg>
