<svg width="1920" height="4905" viewBox="0 0 1920 4905" fill="none" xmlns="http://www.w3.org/2000/svg">
<g clip-path="url(#clip0_306_515)">
<rect width="1920" height="4905" fill="white"/>
<rect width="1920" height="4905" fill="#FEFBF6"/>
<path d="M12.519 700.149C-13.1515 717.97 -42.433 721.444 -69.3876 708.487C-110.724 688.657 -152.496 649.855 -197.988 612.88C-215.706 598.484 -229.542 574.689 -235.313 545.867C-247.907 482.982 -214.127 446.456 -185.637 414.187C-163.033 388.59 -139.503 352.639 -143.948 310.874C-147.196 280.384 -164.352 258.333 -177.715 234.767C-194.913 204.416 -207.324 163.873 -200.849 125.336C-192.709 76.9161 -157.294 48.5376 -123.891 44.9121C-90.4881 41.2866 -57.5909 56.0823 -24.5001 63.8836C22.8059 75.0338 71.4274 71.9165 118.24 86.9874C165.048 102.029 212.45 140.528 230.476 206.676C244.645 258.753 237.849 319.723 219.711 368.996C201.573 418.269 173.226 457.439 143.431 491.855C119.591 519.389 93.6002 546.074 79.8654 586.098C78.0453 591.402 76.4639 596.896 75.0239 602.493C64.2733 644.143 43.6974 678.517 16.535 697.348L12.519 700.149Z" stroke="black" stroke-opacity="0.05" stroke-width="1.5" stroke-miterlimit="10"/>
<path d="M-16.6418 663.77C-39.8225 679.843 -66.2565 682.983 -90.5727 671.315C-127.881 653.408 -165.59 618.371 -206.648 585.025C-222.641 572.035 -235.12 550.556 -240.347 524.532C-251.702 467.776 -221.237 434.783 -195.503 405.659C-175.102 382.538 -153.853 350.112 -157.858 312.39C-160.782 284.872 -176.278 264.963 -188.348 243.704C-203.879 216.297 -215.08 179.698 -209.23 144.914C-201.867 101.2 -169.912 75.6041 -139.772 72.3096C-109.607 69.037 -79.9288 82.4169 -50.0587 89.4211C-7.36911 99.4823 36.5153 96.6805 78.7907 110.263C121.047 123.852 163.83 158.605 180.089 218.322C192.884 265.339 186.748 320.38 170.365 364.837C153.983 409.295 128.409 444.666 101.504 475.735C79.9998 500.589 56.5252 524.682 44.1383 560.812C42.4854 565.622 41.0617 570.564 39.7793 575.608C30.0595 613.202 11.5039 644.238 -13.0171 661.235L-16.6418 663.77Z" stroke="black" stroke-opacity="0.05" stroke-width="1.5" stroke-miterlimit="10"/>
<path d="M-53.9011 634.347C-74.9394 648.954 -98.9361 651.788 -121.024 641.189C-154.889 624.924 -189.12 593.124 -226.396 562.842C-240.908 551.04 -252.25 531.555 -256.975 507.943C-267.278 456.427 -239.629 426.476 -216.27 400.045C-197.755 379.069 -178.461 349.616 -182.099 315.376C-184.751 290.385 -198.821 272.333 -209.783 253.017C-223.88 228.144 -234.044 194.936 -228.725 163.344C-222.047 123.651 -193.037 100.434 -165.666 97.4443C-138.29 94.4835 -111.328 106.603 -84.2351 112.988C-45.469 122.139 -5.62817 119.583 32.7295 131.913C71.0871 144.243 109.923 175.807 124.688 229.984C136.313 272.67 130.727 322.626 115.868 363.001C101.009 403.375 77.7778 435.477 53.365 463.685C33.8446 486.235 12.5339 508.113 1.29798 540.915C-0.202363 545.267 -1.49308 549.759 -2.66684 554.331C-11.4842 588.472 -28.3383 616.628 -50.5896 632.051L-53.9011 634.347Z" stroke="black" stroke-opacity="0.05" stroke-width="1.5" stroke-miterlimit="10"/>
<path d="M-114.739 659.273C-135.778 673.88 -159.774 676.714 -181.862 666.114C-215.727 649.85 -249.958 618.049 -287.235 587.768C-301.746 575.966 -313.088 556.48 -317.813 532.868C-328.117 481.352 -300.467 451.401 -277.109 424.971C-258.593 403.995 -239.299 374.542 -242.938 340.301C-245.589 315.311 -259.659 297.259 -270.621 277.943C-284.718 253.069 -294.883 219.862 -289.563 188.27C-282.885 148.577 -253.875 125.36 -226.504 122.37C-199.128 119.409 -172.167 131.529 -145.073 137.913C-106.307 147.064 -66.4665 144.509 -28.1089 156.839C10.2487 169.168 49.0847 200.733 63.8494 254.909C75.4743 297.596 69.8881 347.552 55.0294 387.926C40.1707 428.301 16.9394 460.403 -7.47337 488.61C-26.9938 511.161 -48.3045 533.038 -59.5404 565.841C-61.0407 570.193 -62.3315 574.684 -63.5052 579.257C-72.3226 613.398 -89.1766 641.554 -111.428 656.977L-114.739 659.273Z" stroke="black" stroke-opacity="0.05" stroke-width="1.5" stroke-miterlimit="10"/>
<path d="M-18.7525 833.178C-52.7239 856.731 -91.481 861.331 -127.141 844.241C-181.83 817.995 -237.12 766.625 -297.309 717.731C-320.747 698.694 -339.046 667.202 -346.688 629.052C-363.337 545.864 -318.658 497.49 -280.961 454.799C-251.055 420.929 -219.904 373.375 -225.774 318.069C-230.07 277.703 -252.79 248.573 -270.459 217.376C-293.219 177.196 -309.655 123.571 -301.073 72.5474C-290.314 8.4552 -243.475 -29.089 -199.258 -33.8981C-155.041 -38.7072 -111.521 -19.0907 -67.7338 -8.78306C-5.1341 5.96949 59.2079 1.87834 121.145 21.7882C183.082 41.6981 245.81 92.6589 269.664 180.19C288.434 249.093 279.42 329.792 255.431 394.996C231.417 460.178 193.922 512.006 154.479 557.563C122.946 594.007 88.5297 629.314 70.3773 682.271C67.9717 689.304 65.8731 696.564 63.9598 703.942C49.7325 759.075 22.5072 804.541 -13.4354 829.466L-18.7525 833.178Z" stroke="black" stroke-opacity="0.05" stroke-width="1.5" stroke-miterlimit="10"/>
<path d="M1912.31 4479.33C1937.98 4497.15 1967.27 4500.62 1994.22 4487.67C2035.56 4467.84 2077.33 4429.04 2122.82 4392.06C2140.54 4377.66 2154.37 4353.87 2160.15 4325.05C2172.74 4262.16 2138.96 4225.64 2110.47 4193.37C2087.87 4167.77 2064.34 4131.82 2068.78 4090.06C2072.03 4059.57 2089.18 4037.51 2102.55 4013.95C2119.75 3983.6 2132.16 3943.05 2125.68 3904.52C2117.54 3856.1 2082.13 3827.72 2048.72 3824.09C2015.32 3820.47 1982.42 3835.26 1949.33 3843.06C1902.03 3854.21 1853.41 3851.1 1806.59 3866.17C1759.78 3881.21 1712.38 3919.71 1694.36 3985.86C1680.19 4037.93 1686.98 4098.9 1705.12 4148.18C1723.26 4197.45 1751.61 4236.62 1781.4 4271.04C1805.24 4298.57 1831.23 4325.26 1844.97 4365.28C1846.79 4370.58 1848.37 4376.08 1849.81 4381.67C1860.56 4423.32 1881.14 4457.7 1908.3 4476.53L1912.31 4479.33Z" stroke="black" stroke-opacity="0.05" stroke-width="1.5" stroke-miterlimit="10"/>
<path d="M1941.47 4442.95C1964.66 4459.02 1991.09 4462.16 2015.41 4450.5C2052.71 4432.59 2090.42 4397.55 2131.48 4364.21C2147.47 4351.22 2159.95 4329.74 2165.18 4303.71C2176.53 4246.96 2146.07 4213.96 2120.34 4184.84C2099.93 4161.72 2078.69 4129.29 2082.69 4091.57C2085.61 4064.05 2101.11 4044.14 2113.18 4022.89C2128.71 3995.48 2139.91 3958.88 2134.06 3924.1C2126.7 3880.38 2094.74 3854.79 2064.6 3851.49C2034.44 3848.22 2004.76 3861.6 1974.89 3868.6C1932.2 3878.66 1888.32 3875.86 1846.04 3889.44C1803.79 3903.03 1761 3937.79 1744.74 3997.5C1731.95 4044.52 1738.08 4099.56 1754.47 4144.02C1770.85 4188.48 1796.42 4223.85 1823.33 4254.92C1844.83 4279.77 1868.31 4303.86 1880.69 4339.99C1882.35 4344.8 1883.77 4349.74 1885.05 4354.79C1894.77 4392.38 1913.33 4423.42 1937.85 4440.42L1941.47 4442.95Z" stroke="black" stroke-opacity="0.05" stroke-width="1.5" stroke-miterlimit="10"/>
<path d="M1978.73 4413.53C1999.77 4428.14 2023.77 4430.97 2045.86 4420.37C2079.72 4404.11 2113.95 4372.3 2151.23 4342.02C2165.74 4330.22 2177.08 4310.74 2181.81 4287.12C2192.11 4235.61 2164.46 4205.66 2141.1 4179.23C2122.59 4158.25 2103.29 4128.8 2106.93 4094.56C2109.58 4069.57 2123.65 4051.51 2134.62 4032.2C2148.71 4007.32 2158.88 3974.12 2153.56 3942.53C2146.88 3902.83 2117.87 3879.62 2090.5 3876.63C2063.12 3873.66 2036.16 3885.78 2009.07 3892.17C1970.3 3901.32 1930.46 3898.76 1892.1 3911.09C1853.75 3923.42 1814.91 3954.99 1800.15 4009.16C1788.52 4051.85 1794.11 4101.81 1808.97 4142.18C1823.82 4182.56 1847.06 4214.66 1871.47 4242.87C1890.99 4265.42 1912.3 4287.29 1923.54 4320.1C1925.04 4324.45 1926.33 4328.94 1927.5 4333.51C1936.32 4367.65 1953.17 4395.81 1975.42 4411.23L1978.73 4413.53Z" stroke="black" stroke-opacity="0.05" stroke-width="1.5" stroke-miterlimit="10"/>
<path d="M2039.57 4438.45C2060.61 4453.06 2084.61 4455.89 2106.69 4445.29C2140.56 4429.03 2174.79 4397.23 2212.07 4366.95C2226.58 4355.15 2237.92 4335.66 2242.65 4312.05C2252.95 4260.53 2225.3 4230.58 2201.94 4204.15C2183.43 4183.18 2164.13 4153.72 2167.77 4119.48C2170.42 4094.49 2184.49 4076.44 2195.45 4057.12C2209.55 4032.25 2219.72 3999.04 2214.4 3967.45C2207.72 3927.76 2178.71 3904.54 2151.34 3901.55C2123.96 3898.59 2097 3910.71 2069.91 3917.09C2031.14 3926.24 1991.3 3923.69 1952.94 3936.02C1914.58 3948.35 1875.75 3979.91 1860.98 4034.09C1849.36 4076.78 1854.94 4126.73 1869.8 4167.11C1884.66 4207.48 1907.89 4239.58 1932.31 4267.79C1951.83 4290.34 1973.14 4312.22 1984.37 4345.02C1985.87 4349.37 1987.16 4353.86 1988.34 4358.44C1997.16 4392.58 2014.01 4420.73 2036.26 4436.16L2039.57 4438.45Z" stroke="black" stroke-opacity="0.05" stroke-width="1.5" stroke-miterlimit="10"/>
<path d="M1943.59 4612.36C1977.56 4635.91 2016.31 4640.51 2051.97 4623.42C2106.66 4597.18 2161.95 4545.81 2222.14 4496.91C2245.58 4477.88 2263.88 4446.38 2271.52 4408.23C2288.17 4325.04 2243.49 4276.67 2205.79 4233.98C2175.89 4200.11 2144.74 4152.56 2150.61 4097.25C2154.9 4056.88 2177.62 4027.75 2195.29 3996.56C2218.05 3956.38 2234.49 3902.75 2225.91 3851.73C2215.15 3787.64 2168.31 3750.09 2124.09 3745.28C2079.87 3740.47 2036.35 3760.09 1992.57 3770.4C1929.97 3785.15 1865.63 3781.06 1803.69 3800.97C1741.75 3820.88 1679.02 3871.84 1655.17 3959.37C1636.4 4028.27 1645.41 4108.97 1669.4 4174.18C1693.42 4239.36 1730.91 4291.19 1770.35 4336.74C1801.89 4373.19 1836.3 4408.5 1854.46 4461.45C1856.86 4468.48 1858.96 4475.74 1860.87 4483.12C1875.1 4538.26 1902.33 4583.72 1938.27 4608.65L1943.59 4612.36Z" stroke="black" stroke-opacity="0.05" stroke-width="1.5" stroke-miterlimit="10"/>
<path d="M1953 50.0005C1901.83 75.0005 1796.8 169.3 1786 346.5C1772.5 568 1711.5 755 1544.5 816.5C1377.5 878 1411.5 1194.5 1742 1392C2006.4 1550 2011.17 1932.5 1980.5 2104" stroke="#C47A5E" stroke-opacity="0.1" stroke-width="2"/>
<path d="M-32.5 1830C11.6667 1869.5 128.6 1951.3 243 1962.5C386 1976.5 502 2112.5 447.5 2238.5C393 2364.5 324.5 2528.5 386 2702C447.5 2875.5 311.5 2944 -56.5 2957.5" stroke="#C47A5E" stroke-opacity="0.1" stroke-width="2"/>
<path d="M1943 3545.6C1885.17 3541.1 1764 3560 1742 3671.6C1714.5 3811.1 1721.5 3947.6 1517 4053.1C1312.5 4158.6 1504 4393.6 1636.5 4468.6C1769 4543.6 1943 4822.6 1943 5061.1" stroke="#C47A5E" stroke-opacity="0.1" stroke-width="2"/>
</g>
<defs>
<clipPath id="clip0_306_515">
<rect width="1920" height="4905" fill="white"/>
</clipPath>
</defs>
</svg>
