<svg width="209" height="145" viewBox="0 0 209 145" fill="none" xmlns="http://www.w3.org/2000/svg">
<mask id="mask0_305_29" style="mask-type:alpha" maskUnits="userSpaceOnUse" x="0" y="0" width="209" height="145">
<rect width="209" height="145" fill="#C47A5F"/>
</mask>
<g mask="url(#mask0_305_29)">
<path d="M234.343 18.6615C251.689 18.3226 268.584 23.8517 281.366 34.612C300.975 51.0994 317.574 74.3469 336.556 97.8101C343.95 106.947 347.571 118.488 345.842 129.935C342.069 154.912 317.002 159.948 295.61 164.708C278.638 168.484 259.376 175.68 254.688 191.365C251.267 202.816 257.036 214.51 260.433 225.862C264.802 240.479 264.759 257.571 254.546 269.606C241.712 284.726 217.132 286.525 197.917 280.099C178.702 273.673 162.927 260.898 145.845 250.533C121.424 235.717 93.8247 225.605 70.3511 209.526C46.8751 193.458 27.0906 169.019 28.3998 141.646C29.4425 120.101 43.6803 100.265 62.2261 87.15C80.7719 74.0346 103.268 66.8184 125.754 61.6047C143.746 57.4342 162.79 54.0576 177.298 43.1738C179.221 41.7316 181.043 40.1675 182.805 38.5348C195.931 26.3927 213.279 19.0692 231.628 18.7194L234.343 18.6615Z" stroke="#513125" stroke-opacity="0.15" stroke-width="3" stroke-miterlimit="10"/>
<path d="M244.337 38.1521C259.996 37.8528 275.249 42.8426 286.784 52.5425C304.481 67.4266 319.463 88.4163 336.599 109.584C343.274 117.829 346.538 128.245 344.985 138.585C341.573 161.124 318.957 165.683 299.638 169.976C284.318 173.39 266.929 179.874 262.69 194.039C259.599 204.372 264.811 214.932 267.884 225.176C271.829 238.375 271.789 253.804 262.567 264.665C250.973 278.313 228.797 279.933 211.454 274.142C194.102 268.339 179.876 256.803 164.45 247.46C142.413 234.089 117.504 224.959 96.3009 210.448C75.1097 195.939 57.2543 173.88 58.4438 149.171C59.3836 129.718 72.2375 111.812 88.9803 99.9826C105.723 88.1532 126.024 81.6313 146.328 76.9264C162.56 73.1583 179.758 70.1115 192.849 60.284C194.594 58.9767 196.234 57.5701 197.813 56.0949C209.67 45.139 225.32 38.5213 241.885 38.2064L244.337 38.1521Z" stroke="#513125" stroke-opacity="0.15" stroke-width="3" stroke-miterlimit="10"/>
<path d="M260.032 57.0672C274.247 56.7886 288.091 61.3243 298.568 70.1355C314.63 83.6495 328.231 102.701 343.789 121.922C349.842 129.409 352.815 138.863 351.396 148.24C348.297 168.698 327.771 172.838 310.236 176.732C296.333 179.828 280.542 185.72 276.696 198.578C273.887 207.961 278.623 217.54 281.413 226.847C284.995 238.827 284.958 252.826 276.58 262.689C266.056 275.083 245.927 276.546 230.178 271.288C214.432 266.018 201.502 255.549 187.516 247.064C167.506 234.918 144.891 226.632 125.653 213.464C106.416 200.296 90.2109 180.266 91.2823 157.846C92.1311 140.183 103.807 123.935 119.001 113.188C134.196 102.44 152.632 96.5258 171.058 92.2508C185.791 88.8342 201.405 86.0662 213.284 77.1415C214.866 75.9597 216.354 74.6806 217.792 73.3462C228.554 63.3942 242.764 57.3954 257.795 57.11L260.032 57.0672Z" stroke="#513125" stroke-opacity="0.15" stroke-width="3" stroke-miterlimit="10"/>
<path d="M283.32 75.1402C297.536 74.8616 311.379 79.3973 321.856 88.2085C337.918 101.723 351.52 120.774 367.077 139.995C373.13 147.482 376.103 156.936 374.684 166.313C371.586 186.771 351.059 190.911 333.524 194.805C319.621 197.901 303.83 203.793 299.984 216.651C297.175 226.034 301.911 235.613 304.701 244.92C308.283 256.9 308.246 270.899 299.868 280.762C289.344 293.156 269.215 294.619 253.466 289.361C237.72 284.091 224.79 273.622 210.804 265.137C190.794 252.991 168.179 244.705 148.941 231.537C129.704 218.369 113.499 198.339 114.57 175.919C115.419 158.256 127.095 142.008 142.289 131.261C157.484 120.513 175.92 114.599 194.346 110.324C209.079 106.907 224.693 104.139 236.572 95.2145C238.154 94.0327 239.642 92.7536 241.08 91.4192C251.842 81.4672 266.052 75.4684 281.083 75.183L283.32 75.1402Z" stroke="#513125" stroke-opacity="0.15" stroke-width="3" stroke-miterlimit="10"/>
<path d="M274.561 -20.8264C297.51 -21.2645 319.873 -13.9467 336.792 0.27066C362.734 22.0877 384.702 52.8621 409.821 83.8963C419.604 95.9804 424.389 111.252 422.101 126.405C417.104 159.442 383.939 166.125 355.634 172.422C333.18 177.419 307.685 186.932 301.469 207.698C296.939 222.857 304.59 238.318 309.076 253.341C314.855 272.69 314.808 295.302 301.282 311.234C284.303 331.252 251.792 333.635 226.355 325.133C200.917 316.63 180.056 299.715 157.449 286.005C125.133 266.399 88.6161 253.006 57.5533 231.742C26.4905 210.479 0.312356 178.134 2.04341 141.911C3.41051 113.399 22.2662 87.15 46.8007 69.7912C71.345 52.4457 101.104 42.8948 130.871 35.9939C154.673 30.4689 179.885 26.0076 199.071 11.6026C201.616 9.68836 204.029 7.62356 206.359 5.47482C223.733 -10.599 246.684 -20.2836 270.965 -20.749L274.561 -20.8264Z" stroke="#513125" stroke-opacity="0.15" stroke-width="3" stroke-miterlimit="10"/>
</g>
</svg>
